<svg viewBox="0 0 20 20" id="icon-earphone" xmlns="http://www.w3.org/2000/svg"><path fill="none" d="M0 0h20v20H0z"></path><path d="M16.93 2.68c-.12-.3-.41-.63-.68-.79L13.22.1c-.45-.26-1.01.02-1.09.49l-.96 4.29c-.07.4.14.86.49 1.06l1.34.89c.08.05.2.21.22.29 0 .01.26 1.29-1.38 4.2-1.63 2.9-2.82 3.31-2.9 3.32-.12 0-.23-.03-.27-.06l-1.54-1.01c-.35-.21-.86-.16-1.19.15l-2.93 3.06c-.18.17-.28.4-.25.64.02.23.16.44.38.57l3.03 1.8c.23.12.56.21.85.21.06 0 .11 0 .17-.01.16-.02 3.89-.59 7.54-7.08s2.26-10.08 2.2-10.23z"></path></svg>